<svg xmlns="http://www.w3.org/2000/svg" width="400" height="400" viewBox="0 0 410 210">
  <path fill="#d80303" d="M6.57 126L14.01 126L14.01 98.03C14.01 91.93 16.50 86.94 24.49 86.94C25.87 86.94 27.33 86.98 28.10 87.11L28.10 80.37C27.20 80.24 26.25 80.15 25.31 80.15C18.91 80.15 15.51 83.68 14.18 86.38L13.96 86.38L13.96 80.84L6.57 80.84ZM53.50 126.73C63.46 126.73 69.44 121.19 71.16 113.71L63.81 113.71C62.35 117.92 58.91 120.54 53.67 120.54C46.32 120.54 41.94 114.66 41.94 106.06L41.94 105.25L71.76 105.25L71.76 101.04C71.76 88.62 64.97 80.11 53.15 80.11C41.29 80.11 34.55 88.62 34.55 100.52L34.55 105.59C34.55 118.44 41.72 126.73 53.50 126.73ZM41.94 99.27L41.94 99.14C41.94 92.01 46.32 86.30 53.20 86.30C59.94 86.30 64.37 91.97 64.37 99.14L64.37 99.27Z"/>
  <path d="M82.93 126L90.32 126L90.32 97.38C90.32 90.55 94.66 86.77 100.20 86.77C106.35 86.77 110.04 90.55 110.04 97.47L110.04 126L117.39 126L117.39 97.47C117.39 91.20 120.96 86.77 127.36 86.77C133.80 86.77 137.11 91.02 137.11 96.78L137.11 126L144.46 126L144.46 95.28C144.46 86.00 138.83 80.11 129.29 80.11C121.95 80.11 117.18 83.50 115.46 87.37L115.11 87.37C113.35 82.95 109.14 80.11 102.09 80.11C96.12 80.11 92.13 83.29 90.66 86.38L90.28 86.38L90.28 80.84L82.93 80.84ZM182.66 120.37L182.88 120.37L182.88 126L189.96 126L189.96 94.85C189.96 85.35 182.96 80.11 173.34 80.11C162.42 80.11 157.05 85.87 156.58 93.77L163.54 93.77C163.97 89.26 167.28 86.30 173.08 86.30C179.18 86.30 182.62 89.56 182.62 95.49L182.62 100.09L170.71 100.09C160.36 100.13 154.86 105.12 154.86 113.02C154.86 121.32 160.88 126.73 169.60 126.73C176.26 126.73 180.38 124.02 182.66 120.37ZM171.57 120.59C166.85 120.59 162.42 118.09 162.42 112.77C162.42 108.68 165.09 105.76 171.27 105.76L182.62 105.76L182.62 111.00C182.62 116.63 177.89 120.59 171.57 120.59ZM202.73 126L210.16 126L210.16 98.03C210.16 91.93 212.65 86.94 220.64 86.94C222.02 86.94 223.48 86.98 224.25 87.11L224.25 80.37C223.35 80.24 222.41 80.15 221.46 80.15C215.06 80.15 211.66 83.68 210.33 86.38L210.12 86.38L210.12 80.84L202.73 80.84ZM240.02 109.71L244.19 105.16L259.53 126L268.60 126L249.65 100.48L267.48 80.84L258.33 80.84L240.32 100.82L240.02 100.82L240.02 64.25L232.63 64.25L232.63 126L240.02 126Z"/>
  <path fill="#d80303" d="M274.57 126L281.92 126L281.92 64.25L274.57 64.25ZM295.80 126L303.19 126L303.19 80.84L295.80 80.84ZM294.77 69.97C294.77 72.59 296.87 74.65 299.49 74.65C302.11 74.65 304.26 72.59 304.26 69.97C304.26 67.30 302.11 65.24 299.49 65.24C296.87 65.24 294.77 67.30 294.77 69.97ZM316.81 126L324.20 126L324.20 98.50C324.20 92.31 327.55 86.81 335.33 86.81C341.90 86.81 346.37 90.68 346.37 98.29L346.37 126L353.76 126L353.76 97.04C353.76 86.04 346.84 80.11 337.56 80.11C330.21 80.11 326.05 83.93 324.37 86.81L324.16 86.81L324.16 80.84L316.81 80.84ZM369.06 80.84L362.96 80.84L362.96 87.03L369.02 87.03L369.02 113.37C369.02 122.26 371.21 126.39 381.91 126.39C383.45 126.39 385 126.21 385.64 126.09L385.64 120.16C385.04 120.24 384.48 120.24 383.75 120.24C378.21 120.24 376.41 118.87 376.41 113.45L376.41 87.03L385.34 87.03L385.34 80.84L376.41 80.84L376.41 69.58L369.06 69.58Z"/>
</svg>
