<svg height="300" viewBox="0 0 1012 300" width="1012" xmlns="http://www.w3.org/2000/svg">
  <style>
    .b {fill: #0d1117}
    .l {fill: #fff}
    @media (prefers-color-scheme: light) {
      .b {fill: #fff}
      .l {fill: #0d1117}
    }
  </style>
  <rect class="b" height="300" width="1012" x="0" y="0" />
  <path d="M336.61 173.50L336.61 159.32Q336.61 152.84 339.62 149.00Q342.64 145.17 347.74 145.17L347.74 145.17Q349.03 145.17 350.43 145.40Q351.84 145.63 352.92 146.04L352.92 146.04L352.92 141.86Q352.19 141.53 350.95 141.34Q349.70 141.15 348.32 141.15L348.32 141.15Q343.72 141.15 340.74 143.45Q337.75 145.75 336.93 149.97L336.93 149.97L336.52 149.97L336.52 141.94L325.62 141.94L325.62 145.05L332.77 145.05L332.77 173.50L336.61 173.50ZM326.26 173.50L346.63 173.50L346.63 170.39L326.26 170.39L326.26 173.50ZM375.51 144.81L375.51 144.81Q379.70 144.81 382.06 147.67Q384.42 150.53 384.42 155.57L384.42 155.57L366.37 155.57Q366.37 150.50 368.80 147.66Q371.23 144.81 375.51 144.81ZM388.17 165.70L384.36 165.70Q383.63 168.02 381.40 169.31Q379.17 170.60 375.95 170.60L375.95 170.60Q371.56 170.60 368.96 167.68Q366.37 164.77 366.37 159.81L366.37 159.81L366.37 158.73L388.31 158.73L388.31 156.24Q388.31 151.52 386.81 148.21Q385.30 144.90 382.44 143.16Q379.58 141.42 375.51 141.42L375.51 141.42Q371.62 141.42 368.69 143.13Q365.76 144.84 364.14 147.93Q362.53 151.03 362.53 155.19L362.53 155.19L362.53 159.79Q362.53 166.52 366.06 170.27Q369.59 174.02 375.95 174.02L375.95 174.02Q379.14 174.02 381.71 173.00Q384.27 171.97 385.96 170.10Q387.64 168.22 388.17 165.70L388.17 165.70Z" fill="#d80303" />
  <path class="l" d="M427.87 173.50L427.87 150.85Q427.87 146.16 426.12 143.79Q424.38 141.42 420.92 141.42L420.92 141.42Q418.49 141.42 416.64 142.71Q414.80 143.99 414.15 146.16L414.15 146.16L413.74 146.16Q413.25 143.91 411.71 142.66Q410.17 141.42 407.91 141.42L407.91 141.42Q405.75 141.42 404.12 142.69Q402.49 143.96 401.88 146.16L401.88 146.16L401.47 146.16L401.47 141.94L397.98 141.94L397.98 173.50L401.59 173.50L401.59 152.37Q401.59 148.89 402.95 146.88Q404.31 144.87 406.68 144.87L406.68 144.87Q408.94 144.87 410.07 146.59Q411.20 148.30 411.20 151.70L411.20 151.70L411.20 173.50L414.80 173.50L414.80 152.37Q414.80 148.86 416.13 146.87Q417.46 144.87 419.78 144.87L419.78 144.87Q422.01 144.87 423.13 146.60Q424.26 148.33 424.26 151.73L424.26 151.73L424.26 173.50L427.87 173.50ZM447.23 174.05L447.23 174.05Q450.80 174.05 453.34 172.63Q455.87 171.21 456.99 168.54L456.99 168.54L457.40 168.54L457.40 173.53L461.09 173.53L461.09 151.85Q461.09 147.04 458.11 144.36Q455.14 141.68 449.78 141.68L449.78 141.68Q446.73 141.68 444.26 142.72Q441.78 143.76 440.21 145.58Q438.65 147.39 438.35 149.77L438.35 149.77L442.16 149.77Q442.84 147.48 444.81 146.25Q446.79 145.02 449.78 145.02L449.78 145.02Q453.41 145.02 455.32 146.82Q457.22 148.62 457.22 152.02L457.22 152.02L457.22 155.01L448.08 155.42Q442.87 155.65 440.01 158.04Q437.15 160.43 437.15 164.59L437.15 164.59Q437.15 168.87 439.92 171.46Q442.69 174.05 447.23 174.05ZM448.17 170.65L448.17 170.65Q444.89 170.65 443.00 169.03Q441.11 167.40 441.11 164.59L441.11 164.59Q441.11 158.91 448.34 158.58L448.34 158.58L457.22 158.20L457.22 162.60Q457.22 164.85 456.02 166.68Q454.82 168.52 452.77 169.58Q450.72 170.65 448.17 170.65ZM485.61 173.50L485.61 159.32Q485.61 152.84 488.63 149.00Q491.64 145.17 496.74 145.17L496.74 145.17Q498.03 145.17 499.44 145.40Q500.84 145.63 501.93 146.04L501.93 146.04L501.93 141.86Q501.20 141.53 499.95 141.34Q498.71 141.15 497.33 141.15L497.33 141.15Q492.73 141.15 489.74 143.45Q486.75 145.75 485.93 149.97L485.93 149.97L485.52 149.97L485.52 141.94L474.62 141.94L474.62 145.05L481.77 145.05L481.77 173.50L485.61 173.50ZM475.27 173.50L495.63 173.50L495.63 170.39L475.27 170.39L475.27 173.50ZM533.30 141.94L518.48 156.80L518.13 156.80L518.13 129.38L514.29 129.38L514.29 173.50L518.13 173.50L518.13 161.54L523.72 156.09L524.66 155.19L538.17 141.94L533.30 141.94ZM525.19 153.43L522.41 155.92L534.42 173.50L539.05 173.50L525.19 153.43Z" />
  <path d="M551 173.50L576.75 173.50L576.75 170.39L565.94 170.39L565.94 129.38L550.94 129.38L550.94 132.48L562.10 132.48L562.10 170.39L551 170.39L551 173.50ZM600.69 133.59L600.69 133.59Q602.18 133.59 603.25 132.52Q604.32 131.46 604.32 129.96L604.32 129.96Q604.32 128.47 603.25 127.40Q602.18 126.33 600.69 126.33L600.69 126.33Q599.19 126.33 598.12 127.40Q597.05 128.47 597.05 129.96L597.05 129.96Q597.05 131.46 598.12 132.52Q599.19 133.59 600.69 133.59ZM588.09 173.50L613.84 173.50L613.84 170.39L603.03 170.39L603.03 141.94L588.03 141.94L588.03 145.05L599.19 145.05L599.19 170.39L588.09 170.39L588.09 173.50ZM624.71 141.94L624.71 173.50L628.55 173.50L628.55 154.75Q628.55 150.35 631.17 147.61Q633.79 144.87 638.04 144.87L638.04 144.87Q642.03 144.87 643.93 147.10Q645.83 149.33 645.83 153.96L645.83 153.96L645.83 173.50L649.67 173.50L649.67 152.99Q649.67 147.36 646.95 144.39Q644.22 141.42 639.07 141.42L639.07 141.42Q635.40 141.42 632.72 143.03Q630.04 144.64 628.75 147.63L628.75 147.63L628.37 147.63L628.37 141.94L624.71 141.94ZM673.17 133.74L669.33 133.74L669.33 141.94L660.83 141.94L660.83 145.20L669.33 145.20L669.33 164.38Q669.33 167.49 670.59 169.56Q671.85 171.62 674.37 172.65Q676.89 173.67 680.67 173.67L680.67 173.67Q682.04 173.67 683.86 173.55Q685.68 173.44 686.38 173.32L686.38 173.32L686.38 170.04Q685.62 170.16 684.07 170.21Q682.51 170.27 680.87 170.27L680.87 170.27Q677.12 170.27 675.15 168.74Q673.17 167.20 673.17 164.27L673.17 164.27L673.17 145.20L686.38 145.20L686.38 141.94L673.17 141.94L673.17 133.74Z" fill="#d80303" />
</svg>
